<?xml version="1.0" encoding="utf-8"?>
<!-- Generator: Adobe Illustrator 25.4.1, SVG Export Plug-In . SVG Version: 6.00 Build 0)  -->
<svg version="1.1" id="Layer_2_00000088845016831137924690000012963125048105864581_"
	 xmlns="http://www.w3.org/2000/svg" xmlns:xlink="http://www.w3.org/1999/xlink" x="0px" y="0px" viewBox="0 0 360 326.2"
	 style="enable-background:new 0 0 360 326.2;" xml:space="preserve">
<style type="text/css">
	.st0{fill:#BA2031;}
	.st1{fill:#666766;}
</style>
<g>
	<path class="st0" d="M216.7,26.1L199,8.5h-38.2l-17.7,17.7V89l17.7,17.8H199l17.6-17.6L216.7,26.1L216.7,26.1z M161.2,33.8l7.1-7.1
		h23.1l7.1,7.1v47.6l-7.1,7.1h-23.1l-7.1-7.1C161.2,81.4,161.2,33.8,161.2,33.8z"/>
	<path class="st1" d="M159.2,3.8L139,24v66.9l20,20.3h41.8L220.9,91l0.1-67L201,3.8H159.2z M140.8,90.1V24.8L160,5.6h40.1l19.3,19.2
		l-0.3,65.4L200,109.3h-40L140.8,90.1z"/>
	<path class="st1" d="M195.8,35.1l-5.7-5.7h-20.4l-5.6,5.6v45.2l5.5,5.5h20.8l5.4-5.4V35.1z M170.5,31.3h19l4.5,4.5v43.7l-4.4,4.4
		h-19.3l-4.3-4.3V35.7L170.5,31.3L170.5,31.3z"/>
	<polygon class="st1" points="29,146.4 28.4,142.2 20.7,142.2 20.7,169.2 24.8,169.8 24.8,172.3 10.4,172.3 10.4,169.8 14.4,169.2 
		14.4,142.2 6.8,142.2 6.2,146.4 3.5,146.4 3.5,138.8 31.7,138.8 31.7,146.4 29,146.4 	"/>
	<polygon class="st1" points="49.8,172.3 49.8,169.9 53.6,169.3 53.6,160.1 43.6,160.1 43.6,169.3 47.3,169.9 47.3,172.3 
		33.7,172.3 33.7,169.9 37.6,169.3 37.6,149 33.7,148.4 33.7,146 47.3,146 47.3,148.4 43.6,149 43.6,156.9 53.6,156.9 53.6,149 
		49.8,148.4 49.8,146 63.5,146 63.5,148.4 59.6,149 59.6,169.3 63.5,169.9 63.5,172.3 49.8,172.3 	"/>
	<polygon class="st1" points="89.1,172.3 66.4,172.3 66.4,169.9 70.3,169.3 70.3,149 66.4,148.4 66.4,146 89.1,146 89.1,153 
		86.6,153 86,149.2 76.3,149.2 76.3,157 82.4,157 83,153.7 85.2,153.7 85.2,163.4 83,163.4 82.4,160 76.3,160 76.3,169.1 86,169.1 
		86.6,165.4 89.1,165.4 89.1,172.3 	"/>
	<path class="st1" d="M121.1,141.8c-5.6,0-8.4,4.5-8.4,13.7s2.8,13.8,8.3,13.8s8.4-4.5,8.4-13.7S126.6,141.8,121.1,141.8
		L121.1,141.8z M121,172.9c-10.4,0-15-6.2-15-17.5s4.6-17.3,15-17.3s15,6.2,15,17.5S131.4,172.9,121,172.9L121,172.9z"/>
	<polygon class="st1" points="154.9,172.3 154.9,169.9 158.7,169.3 158.7,160.1 148.7,160.1 148.7,169.3 152.4,169.9 152.4,172.3 
		138.8,172.3 138.8,169.9 142.7,169.3 142.7,149 138.8,148.4 138.8,146 152.4,146 152.4,148.4 148.7,149 148.7,156.9 158.7,156.9 
		158.7,149 154.9,148.4 154.9,146 168.6,146 168.6,148.4 164.7,149 164.7,169.3 168.6,169.9 168.6,172.3 154.9,172.3 	"/>
	<polygon class="st1" points="171.9,172.3 171.9,169.9 175.8,169.3 175.8,149 171.9,148.4 171.9,146 185.7,146 185.7,148.4 
		181.8,149 181.8,169.3 185.7,169.9 185.7,172.3 171.9,172.3 	"/>
	<path class="st1" d="M200.6,149c-4.2,0-6.5,3-6.5,10.1s2.2,10.2,6.4,10.2s6.5-3,6.5-10.1S204.8,149,200.6,149z M200.6,172.8
		c-8.9,0-12.7-5-12.7-13.7s3.9-13.6,12.8-13.6s12.7,5,12.7,13.7S209.4,172.8,200.6,172.8z"/>
	<path class="st1" d="M240.7,172.9c-3.6,0-7.1-0.7-10.5-2v-7.2h2.9l0.6,4.6c1.9,0.6,4,0.8,6,0.8c3.9,0,7.4-1.3,7.4-5.6
		c0-3.9-2.7-4.4-6-5.5c-5.3-1.8-10.8-3.3-10.8-10.5c0-5.9,3.7-9.4,11.3-9.4c3.4,0,6.8,0.7,10,1.9v6.7h-2.9l-0.6-4.3
		c-1.9-0.4-3.9-0.6-5.9-0.6c-2.9,0-5.9,1-5.9,4.9c0,8.4,16.8,2.9,16.8,16.2C253.2,169.2,249.1,172.9,240.7,172.9L240.7,172.9z"/>
	<polygon class="st1" points="276.9,153.3 276.3,149.2 270.5,149.2 270.5,169.3 274.4,169.9 274.4,172.3 260.6,172.3 260.6,169.9 
		264.5,169.3 264.5,149.2 258.7,149.2 258.1,153.3 255.5,153.3 255.5,146 279.5,146 279.5,153.3 276.9,153.3 	"/>
	<path class="st1" d="M292.4,151.1l-3.8,10.4h7.6L292.4,151.1z M295.5,172.3v-2.4l3.8-0.6l-1.9-4.8h-10l-1.9,4.8l3.8,0.6v2.4h-11.5
		v-2.4l3.8-0.6l9-23.3h5.8l9,23.3l3.8,0.6v2.4H295.5z"/>
	<polygon class="st1" points="328.9,153.3 328.3,149.2 322.5,149.2 322.5,169.3 326.4,169.9 326.4,172.3 312.6,172.3 312.6,169.9 
		316.5,169.3 316.5,149.2 310.7,149.2 310.1,153.3 307.5,153.3 307.5,146 331.5,146 331.5,153.3 328.9,153.3 	"/>
	<polygon class="st1" points="356.5,172.3 333.8,172.3 333.8,169.9 337.7,169.3 337.7,149 333.8,148.4 333.8,146 356.5,146 
		356.5,153 353.9,153 353.3,149.2 343.7,149.2 343.7,157 349.7,157 350.3,153.7 352.6,153.7 352.6,163.4 350.3,163.4 349.7,160 
		343.7,160 343.7,169.1 353.3,169.1 353.9,165.4 356.5,165.4 356.5,172.3 	"/>
	<path class="st1" d="M75,191.5v17.1c0,5.8-0.3,8.3-3.1,11c-1.9,2-5.2,2.9-9.9,2.9s-8.2-1.3-10.4-3.5c-2.9-2.9-2.6-7.1-2.6-10.8
		v-16.7l-4-0.6v-2.6h14.4v2.6l-4,0.6v19.6c0,5.5,3,7.7,7.8,7.7c2.5,0,4.6-0.5,5.9-2c1.2-1.2,1.9-3.2,1.9-5.8v-19.6l-4.1-0.6v-2.6
		h12.2v2.6L75,191.5L75,191.5z"/>
	<polygon class="st1" points="106.6,198.6 106.6,221.9 101.9,221.9 88.5,203.1 88.5,218.9 92.4,219.5 92.4,221.9 80.7,221.9 
		80.7,219.5 84.6,218.9 84.6,198.6 80.7,198 80.7,195.6 89.8,195.6 102.7,213.6 102.7,198.6 98.8,198 98.8,195.6 110.5,195.6 
		110.5,198 106.6,198.6 	"/>
	<polygon class="st1" points="113.6,221.9 113.6,219.5 117.6,218.9 117.6,198.6 113.6,198 113.6,195.6 127.5,195.6 127.5,198 
		123.6,198.6 123.6,218.9 127.5,219.5 127.5,221.9 113.6,221.9 	"/>
	<polygon class="st1" points="156.8,198.6 148.1,221.9 142.2,221.9 133.5,198.6 129.7,198 129.7,195.6 143.4,195.6 143.4,198 
		139.6,198.6 146.3,216.7 152.9,198.6 149.1,198 149.1,195.6 160.6,195.6 160.6,198 156.8,198.6 	"/>
	<polygon class="st1" points="185.3,221.9 162.6,221.9 162.6,219.5 166.6,218.9 166.6,198.6 162.6,198 162.6,195.6 185.3,195.6 
		185.3,202.6 182.8,202.6 182.2,198.8 172.6,198.8 172.6,206.6 178.6,206.6 179.2,203.3 181.4,203.3 181.4,213 179.2,213 
		178.6,209.7 172.6,209.7 172.6,218.7 182.2,218.7 182.8,215 185.3,215 185.3,221.9 	"/>
	<path class="st1" d="M205.6,199.6c-1-1.1-3.2-1-4.5-1h-1.8v8.4h1.1c1.7,0,4,0.2,5.3-1.2C207.1,204,207,201.4,205.6,199.6
		L205.6,199.6z M208.4,221.9l-2.4-6c-1.7-4-2.7-5.9-6.2-5.9h-0.5v8.9l3.8,0.6v2.4h-13.7v-2.4l3.9-0.6v-20.3l-3.9-0.6v-2.4h13.3
		c2.7,0,5.9,0.1,7.9,2.1c1.4,1.3,2.1,3,2.1,4.9c0,3-1.9,5.7-4.8,6.7c2.2,1.6,4.1,7.1,5.2,9.7l3.8,0.6v2.4L208.4,221.9z"/>
	<path class="st1" d="M228.8,222.4c-3.1,0-6.1-0.6-9-1.6V214h2.7l0.6,4.3c1.6,0.4,3.2,0.6,4.9,0.6c3.2,0,5.7-1.1,5.7-3.9
		c0-2-1.1-2.7-2.8-3.3c-4.9-1.6-11.1-2.4-11.1-8.9c0-4.7,3.3-7.6,9.7-7.6c3,0,5.9,0.6,8.7,1.6v6.5h-2.7l-0.6-4.1
		c-1.5-0.3-3.1-0.5-4.7-0.5c-2.5,0-4.6,0.9-4.6,3.4c0,5.9,13.9,2,13.9,12.4C239.5,219.6,235.8,222.4,228.8,222.4L228.8,222.4z"/>
	<polygon class="st1" points="242.9,221.9 242.9,219.5 246.9,218.9 246.9,198.6 242.9,198 242.9,195.6 256.8,195.6 256.8,198 
		252.9,198.6 252.9,218.9 256.8,219.5 256.8,221.9 242.9,221.9 	"/>
	<polygon class="st1" points="281,202.9 280.4,198.8 274.6,198.8 274.6,218.9 278.5,219.5 278.5,221.9 264.7,221.9 264.7,219.5 
		268.6,218.9 268.6,198.8 262.8,198.8 262.2,202.9 259.6,202.9 259.6,195.6 283.6,195.6 283.6,202.9 281,202.9 	"/>
	<polygon class="st1" points="311.2,198.6 303.6,210.5 303.6,218.9 307.5,219.5 307.5,221.9 293.6,221.9 293.6,219.5 297.6,218.9 
		297.6,210.5 289.8,198.6 286,198 286,195.6 300,195.6 300,198 296.2,198.6 301.6,207.1 307,198.6 303.4,198 303.4,195.6 315,195.6 
		315,198 311.2,198.6 	"/>
	<polygon class="st1" points="43,240.2 43,242.1 317,242.1 317,240.2 43,240.2 43,240.2 	"/>
</g>
</svg>
